<svg width="46" height="33" viewBox="0 0 46 33" fill="none" xmlns="http://www.w3.org/2000/svg">
<path d="M24.0523 24.3394C24.0523 19.7602 25.756 15.181 29.1634 10.6018C32.5708 6.02262 36.6797 2.48869 41.4902 0L46 4.9276C39.2854 8.31221 35.0763 12.4932 33.3725 17.4706H34.5752C36.3791 17.4706 37.9325 18.0679 39.2353 19.2624C40.4379 20.5566 41.0392 22.1991 41.0392 24.19C41.0392 26.5792 40.1373 28.6199 38.3333 30.3122C36.5294 32.1041 34.4248 33 32.0196 33C29.7146 33 27.8105 32.2036 26.3072 30.6109C24.8039 29.1176 24.0523 27.0271 24.0523 24.3394ZM0 24.3394C0 19.7602 1.7037 15.181 5.11111 10.6018C8.51852 6.02262 12.6274 2.48869 17.4379 0L21.9477 4.9276C15.4335 8.21267 11.2244 12.3937 9.32026 17.4706H10.6732C12.3769 17.4706 13.8802 18.0679 15.183 19.2624C16.3856 20.5566 16.9869 22.1991 16.9869 24.19C16.9869 26.5792 16.085 28.6199 14.281 30.3122C12.4771 32.1041 10.3725 33 7.96732 33C5.66231 33 3.75817 32.2036 2.2549 30.6109C0.751629 29.1176 0 27.0271 0 24.3394Z" fill="#DADADA"/>
</svg>
