<svg width="56" height="56" viewBox="0 0 56 56" fill="none" xmlns="http://www.w3.org/2000/svg">
<g clip-path="url(#clip0)">
<path d="M52.2761 28.7253C52.0508 28.2643 52.0508 27.7356 52.2761 27.2747L54.3648 23.0019C55.5276 20.6229 54.6063 17.7874 52.2672 16.5463L48.0661 14.3173C47.6129 14.0769 47.3021 13.649 47.2134 13.1438L46.3918 8.45942C45.9343 5.85127 43.5217 4.09866 40.9003 4.46955L36.1914 5.13564C35.6832 5.20739 35.1806 5.04398 34.8119 4.68731L31.3939 1.3807C29.4906 -0.460505 26.5091 -0.460615 24.606 1.3807L21.1878 4.68764C20.819 5.04442 20.3164 5.2075 19.8083 5.13596L15.0994 4.46987C12.4771 4.09877 10.0654 5.8516 9.6079 8.45974L8.78628 13.1439C8.69758 13.6492 8.38685 14.077 7.93371 14.3175L3.73264 16.5466C1.39356 17.7875 0.472192 20.6233 1.63506 23.0023L3.72356 27.2749C3.94887 27.7359 3.94887 28.2646 3.72356 28.7255L1.63495 32.9981C0.472083 35.3771 1.39345 38.2126 3.73253 39.4537L7.9336 41.6828C8.38685 41.9232 8.69758 42.351 8.78628 42.8562L9.6079 47.5406C10.0244 49.9149 12.0603 51.5801 14.4001 51.5798C14.6306 51.5798 14.8644 51.5637 15.0995 51.5304L19.8084 50.8643C20.3162 50.7922 20.8191 50.956 21.1879 51.3126L24.606 54.6192C25.5577 55.54 26.7786 56.0002 27.9999 56.0001C29.2208 56 30.4424 55.5397 31.3937 54.6192L34.8119 51.3126C35.1807 50.956 35.6834 50.793 36.1914 50.8643L40.9003 51.5304C43.5229 51.9014 45.9343 50.1487 46.3918 47.5405L47.2135 42.8564C47.3022 42.351 47.613 41.9233 48.0661 41.6828L52.2672 39.4537C54.6063 38.2128 55.5276 35.377 54.3648 32.998L52.2761 28.7253ZM50.7533 36.6005L46.5523 38.8295C45.2129 39.5403 44.2942 40.8045 44.0323 42.2981L43.2107 46.9824C43.0559 47.8648 42.2401 48.4575 41.3527 48.3323L36.6438 47.6662C35.1421 47.4535 33.6562 47.9368 32.5662 48.9911L29.1481 52.2976C28.5043 52.9203 27.4955 52.9203 26.8515 52.2976L23.4335 48.9909C22.5123 48.0999 21.3081 47.617 20.051 47.617C19.8206 47.617 19.5884 47.6332 19.3559 47.6661L14.647 48.3322C13.7604 48.4575 12.9439 47.8647 12.7891 46.9823L11.9673 42.2979C11.7053 40.8043 10.7867 39.54 9.44723 38.8294L5.24616 36.6004C4.45473 36.1805 4.14301 35.2211 4.53643 34.4163L6.62505 30.1435C7.29092 28.7812 7.29092 27.2187 6.62505 25.8563L4.53643 21.5836C4.14301 20.7787 4.45473 19.8194 5.24616 19.3995L9.44723 17.1704C10.7866 16.4596 11.7053 15.1955 11.9672 13.7018L12.7888 9.01755C12.9437 8.13512 13.7594 7.54231 14.6468 7.66765L19.3557 8.33374C20.8568 8.54626 22.3433 8.06315 23.4333 7.00889L26.8514 3.70228C27.4952 3.07951 28.504 3.07951 29.148 3.70228L32.566 7.00889C33.6559 8.06326 35.1422 8.54626 36.6436 8.33374L41.3525 7.66765C42.2392 7.5422 43.0557 8.13512 43.2104 9.01755L44.0321 13.702C44.2941 15.1956 45.2126 16.4598 46.5522 17.1704L50.7532 19.3995C51.5447 19.8194 51.8564 20.7787 51.463 21.5836L49.3743 25.8562C48.7085 27.2184 48.7085 28.7812 49.3743 30.1434L51.463 34.416C51.8565 35.2211 51.5448 36.1806 50.7533 36.6005Z" fill="white"/>
<path d="M39.7993 16.2001C39.1687 15.5694 38.1461 15.5694 37.5154 16.2001L16.1996 37.5161C15.5689 38.1467 15.5689 39.1693 16.1996 39.7999C16.5149 40.1152 16.9282 40.273 17.3414 40.273C17.7546 40.273 18.1681 40.1154 18.4833 39.7999L39.7992 18.4841C40.43 17.8533 40.43 16.8309 39.7993 16.2001Z" fill="white"/>
<path d="M21.5386 13.4658C18.2736 13.4658 15.6172 16.1221 15.6172 19.3872C15.6172 22.6522 18.2736 25.3086 21.5386 25.3086C24.8036 25.3086 27.46 22.6522 27.46 19.3872C27.46 16.1221 24.8036 13.4658 21.5386 13.4658ZM21.5386 22.0787C20.0545 22.0787 18.8471 20.8713 18.8471 19.3871C18.8471 17.903 20.0545 16.6956 21.5386 16.6956C23.0227 16.6956 24.2302 17.903 24.2302 19.3871C24.2301 20.8713 23.0227 22.0787 21.5386 22.0787Z" fill="white"/>
<path d="M34.4605 30.6915C31.1954 30.6915 28.5391 33.3479 28.5391 36.6129C28.5391 39.878 31.1954 42.5344 34.4605 42.5344C37.7255 42.5344 40.3819 39.878 40.3819 36.6129C40.3819 33.3479 37.7255 30.6915 34.4605 30.6915ZM34.4605 39.3044C32.9764 39.3044 31.7689 38.0971 31.7689 36.6129C31.7689 35.1288 32.9763 33.9215 34.4605 33.9215C35.9446 33.9215 37.152 35.1288 37.152 36.6129C37.152 38.0971 35.9446 39.3044 34.4605 39.3044Z" fill="white"/>
</g>
<defs>
<clipPath id="clip0">
<rect width="56" height="56" fill="white"/>
</clipPath>
</defs>
</svg>
