<svg width="46" height="33" viewBox="0 0 46 33" fill="none" xmlns="http://www.w3.org/2000/svg">
<path d="M21.9477 8.66064C21.9477 13.2398 20.244 17.819 16.8366 22.3982C13.4292 26.9774 9.32026 30.5113 4.5098 33L0 28.0724C6.7146 24.6878 10.9237 20.5068 12.6275 15.5294H11.4248C9.62092 15.5294 8.06754 14.9321 6.76471 13.7376C5.56209 12.4434 4.96078 10.8009 4.96078 8.80996C4.96078 6.42082 5.86275 4.38009 7.66667 2.68778C9.47059 0.895928 11.5752 0 13.9804 0C16.2854 0 18.1895 0.796382 19.6928 2.38915C21.1961 3.88236 21.9477 5.97285 21.9477 8.66064ZM46 8.66064C46 13.2398 44.2963 17.819 40.8889 22.3982C37.4815 26.9774 33.3726 30.5113 28.5621 33L24.0523 28.0724C30.5665 24.7873 34.7756 20.6063 36.6797 15.5294H35.3268C33.6231 15.5294 32.1198 14.9321 30.817 13.7376C29.6144 12.4434 29.0131 10.8009 29.0131 8.80996C29.0131 6.42082 29.915 4.38009 31.719 2.68778C33.5229 0.895928 35.6275 0 38.0327 0C40.3377 0 42.2418 0.796382 43.7451 2.38915C45.2484 3.88236 46 5.97285 46 8.66064Z" fill="#DADADA"/>
</svg>
