<svg width="56" height="56" viewBox="0 0 56 56" fill="none" xmlns="http://www.w3.org/2000/svg">
<path d="M37.9531 19.6875C37.0471 19.6875 36.3125 20.4221 36.3125 21.3281V28.1094C36.3125 34.4419 41.4644 39.5938 47.7969 39.5938C48.7029 39.5938 49.4375 38.8592 49.4375 37.9531V31.3906C49.4375 25.1046 44.3597 19.6875 37.9531 19.6875ZM46.1562 36.1477C42.4167 35.3854 39.5938 32.0707 39.5938 28.1094V23.1459C43.286 23.9513 46.1562 27.4003 46.1562 31.3906V36.1477Z" fill="white"/>
<path d="M39.5938 13.2012V8.20312C39.5938 7.29706 38.8592 6.5625 37.9531 6.5625H36.3125V1.64062C36.3125 0.734562 35.5779 0 34.6719 0H28.1094C27.2033 0 26.4688 0.734562 26.4688 1.64062V6.5625H24.8281C23.9221 6.5625 23.1875 7.29706 23.1875 8.20312V14.1153C21.0948 16.4603 19.9062 19.5848 19.9062 22.7967V26.4688H8.20312C3.67992 26.4688 0 30.1487 0 34.6719C0 37.3524 1.29259 39.7365 3.28694 41.2344C1.29259 42.7323 0 45.1163 0 47.7969C0 52.3201 3.67992 56 8.20312 56H47.7969C52.3201 56 56 52.3201 56 47.7969V31.3906C56 21.9124 48.7396 14.0407 39.5938 13.2012ZM29.75 3.28125H33.0312V6.5625H29.75V3.28125ZM26.4688 9.84375H36.3125V13.125H26.4688V9.84375ZM3.28125 34.6719C3.28125 31.958 5.4892 29.75 8.20312 29.75H19.9062V33.0312H8.20312C7.29706 33.0312 6.5625 33.7658 6.5625 34.6719C6.5625 35.5779 7.29706 36.3125 8.20312 36.3125H19.9062V39.5938H8.20312C5.4892 39.5938 3.28125 37.3858 3.28125 34.6719ZM8.20312 52.7188C5.4892 52.7188 3.28125 50.5108 3.28125 47.7969C3.28125 45.083 5.4892 42.875 8.20312 42.875H19.9062V46.1562H8.20312C7.29706 46.1562 6.5625 46.8908 6.5625 47.7969C6.5625 48.7029 7.29706 49.4375 8.20312 49.4375H20.0713C20.3183 50.6492 20.8333 51.7645 21.5514 52.7188H8.20312ZM52.7188 47.7969C52.7188 50.5108 50.5108 52.7188 47.7969 52.7188C47.1438 52.7188 29.2265 52.7188 28.1094 52.7188C25.3955 52.7188 23.1875 50.5108 23.1875 47.7969V22.7966C23.1875 20.4341 24.0412 18.1421 25.5449 16.4062H37.9531C46.0949 16.4062 52.7188 23.1282 52.7188 31.3906V47.7969Z" fill="white"/>
</svg>
