<svg width="56" height="56" viewBox="0 0 56 56" fill="none" xmlns="http://www.w3.org/2000/svg">
<path d="M37.9778 32.945L30.1698 27.089V15.1604C30.1698 13.961 29.2003 12.9915 28.0009 12.9915C26.8015 12.9915 25.832 13.961 25.832 15.1604V28.1736C25.832 28.8567 26.153 29.501 26.6996 29.9087L35.375 36.4153C35.7654 36.7081 36.2209 36.8491 36.6742 36.8491C37.3357 36.8491 37.9863 36.5519 38.4115 35.9793C39.1317 35.0228 38.9365 33.6629 37.9778 32.945Z" fill="white"/>
<path d="M28 0C12.5599 0 0 12.5599 0 28C0 43.4401 12.5599 56 28 56C43.4401 56 56 43.4401 56 28C56 12.5599 43.4401 0 28 0ZM28 51.6623C14.9543 51.6623 4.3377 41.0457 4.3377 28C4.3377 14.9543 14.9543 4.3377 28 4.3377C41.0479 4.3377 51.6623 14.9543 51.6623 28C51.6623 41.0457 41.0457 51.6623 28 51.6623Z" fill="white"/>
</svg>
