<svg width="112" height="16" viewBox="0 0 112 16" fill="none" xmlns="http://www.w3.org/2000/svg">
<g clip-path="url(#clip0)">
<path d="M15.977 6.16432C15.9219 5.9946 15.7753 5.87091 15.5987 5.84529L10.6386 5.12451L8.42034 0.629933C8.34141 0.469933 8.17844 0.368652 8.00003 0.368652C7.8216 0.368652 7.65866 0.469933 7.57969 0.629933L5.36132 5.12451L0.401338 5.84529C0.224808 5.87091 0.0780894 5.9946 0.0229646 6.16429C-0.0321915 6.334 0.0138083 6.52028 0.141589 6.64482L3.73058 10.1434L2.88346 15.0834C2.85327 15.2593 2.92558 15.437 3.06992 15.5419C3.15158 15.6012 3.2483 15.6314 3.34548 15.6314C3.42011 15.6314 3.49498 15.6136 3.56355 15.5776L8 13.2451L12.4363 15.5775C12.5942 15.6606 12.7856 15.6467 12.9299 15.5419C13.0743 15.437 13.1466 15.2593 13.1165 15.0834L12.269 10.1434L15.8584 6.64478C15.9862 6.52028 16.0322 6.334 15.977 6.16432Z" fill="#ED7D31"/>
</g>
<g clip-path="url(#clip1)">
<path d="M39.977 6.16432C39.9219 5.9946 39.7753 5.87091 39.5987 5.84529L34.6386 5.12451L32.4203 0.629933C32.3414 0.469933 32.1784 0.368652 32 0.368652C31.8216 0.368652 31.6587 0.469933 31.5797 0.629933L29.3613 5.12451L24.4013 5.84529C24.2248 5.87091 24.0781 5.9946 24.023 6.16429C23.9678 6.334 24.0138 6.52028 24.1416 6.64482L27.7306 10.1434L26.8835 15.0834C26.8533 15.2593 26.9256 15.437 27.0699 15.5419C27.1516 15.6012 27.2483 15.6314 27.3455 15.6314C27.4201 15.6314 27.495 15.6136 27.5635 15.5776L32 13.2451L36.4363 15.5775C36.5942 15.6606 36.7856 15.6467 36.9299 15.5419C37.0743 15.437 37.1466 15.2593 37.1165 15.0834L36.269 10.1434L39.8584 6.64478C39.9862 6.52028 40.0322 6.334 39.977 6.16432Z" fill="#ED7D31"/>
</g>
<g clip-path="url(#clip2)">
<path d="M63.977 6.16432C63.9219 5.9946 63.7753 5.87091 63.5987 5.84529L58.6386 5.12451L56.4203 0.629933C56.3414 0.469933 56.1784 0.368652 56 0.368652C55.8216 0.368652 55.6587 0.469933 55.5797 0.629933L53.3613 5.12451L48.4013 5.84529C48.2248 5.87091 48.0781 5.9946 48.023 6.16429C47.9678 6.334 48.0138 6.52028 48.1416 6.64482L51.7306 10.1434L50.8835 15.0834C50.8533 15.2593 50.9256 15.437 51.0699 15.5419C51.1516 15.6012 51.2483 15.6314 51.3455 15.6314C51.4201 15.6314 51.495 15.6136 51.5635 15.5776L56 13.2451L60.4363 15.5775C60.5942 15.6606 60.7856 15.6467 60.9299 15.5419C61.0743 15.437 61.1466 15.2593 61.1165 15.0834L60.269 10.1434L63.8584 6.64478C63.9862 6.52028 64.0322 6.334 63.977 6.16432Z" fill="#ED7D31"/>
</g>
<g clip-path="url(#clip3)">
<path d="M87.977 6.16432C87.9219 5.9946 87.7753 5.87091 87.5987 5.84529L82.6386 5.12451L80.4203 0.629933C80.3414 0.469933 80.1784 0.368652 80 0.368652C79.8216 0.368652 79.6587 0.469933 79.5797 0.629933L77.3613 5.12451L72.4013 5.84529C72.2248 5.87091 72.0781 5.9946 72.023 6.16429C71.9678 6.334 72.0138 6.52028 72.1416 6.64482L75.7306 10.1434L74.8835 15.0834C74.8533 15.2593 74.9256 15.437 75.0699 15.5419C75.1516 15.6012 75.2483 15.6314 75.3455 15.6314C75.4201 15.6314 75.495 15.6136 75.5635 15.5776L80 13.2451L84.4363 15.5775C84.5942 15.6606 84.7856 15.6467 84.9299 15.5419C85.0743 15.437 85.1466 15.2593 85.1165 15.0834L84.269 10.1434L87.8584 6.64478C87.9862 6.52028 88.0322 6.334 87.977 6.16432Z" fill="#ED7D31"/>
</g>
<g opacity="0.2" clip-path="url(#clip4)">
<path d="M111.977 6.16432C111.922 5.9946 111.775 5.87091 111.599 5.84529L106.639 5.12451L104.42 0.629933C104.341 0.469933 104.178 0.368652 104 0.368652C103.822 0.368652 103.659 0.469933 103.58 0.629933L101.361 5.12451L96.4013 5.84529C96.2248 5.87091 96.0781 5.9946 96.023 6.16429C95.9678 6.334 96.0138 6.52028 96.1416 6.64482L99.7306 10.1434L98.8835 15.0834C98.8533 15.2593 98.9256 15.437 99.0699 15.5419C99.1516 15.6012 99.2483 15.6314 99.3455 15.6314C99.4201 15.6314 99.495 15.6136 99.5635 15.5776L104 13.2451L108.436 15.5775C108.594 15.6606 108.786 15.6467 108.93 15.5419C109.074 15.437 109.147 15.2593 109.116 15.0834L108.269 10.1434L111.858 6.64478C111.986 6.52028 112.032 6.334 111.977 6.16432Z" fill="black"/>
</g>
<defs>
<clipPath id="clip0">
<rect width="16" height="16" fill="white"/>
</clipPath>
<clipPath id="clip1">
<rect width="16" height="16" fill="white" transform="translate(24)"/>
</clipPath>
<clipPath id="clip2">
<rect width="16" height="16" fill="white" transform="translate(48)"/>
</clipPath>
<clipPath id="clip3">
<rect width="16" height="16" fill="white" transform="translate(72)"/>
</clipPath>
<clipPath id="clip4">
<rect width="16" height="16" fill="white" transform="translate(96)"/>
</clipPath>
</defs>
</svg>
